<svg xmlns="http://www.w3.org/2000/svg" width="48" height="48" viewBox="0 0 48 48"><title>property-sold</title><g><rect x="21" y="1" width="6" height="46" rx="1" fill="#c6a279"></rect><rect x="1" y="5" width="46" height="22" rx="1" fill="#45c543"></rect><rect x="21" y="27" width="6" height="2" fill="#a67c52"></rect><path d="M14.117,17.913a2.215,2.215,0,0,1-.835,1.828,3.624,3.624,0,0,1-2.324.668,5.463,5.463,0,0,1-2.425-.515V18.206A9.929,9.929,0,0,0,10,18.751a4.37,4.37,0,0,0,1.1.158,1.564,1.564,0,0,0,.917-.228.782.782,0,0,0,.319-.68.748.748,0,0,0-.14-.448,1.584,1.584,0,0,0-.413-.378,10.55,10.55,0,0,0-1.111-.58,5.266,5.266,0,0,1-1.177-.709,2.656,2.656,0,0,1-.627-.791,2.251,2.251,0,0,1-.235-1.055A2.213,2.213,0,0,1,9.4,12.253a3.2,3.2,0,0,1,2.13-.65,5,5,0,0,1,1.274.158,8.791,8.791,0,0,1,1.269.445l-.586,1.412a8.589,8.589,0,0,0-1.134-.392,3.615,3.615,0,0,0-.882-.112,1.169,1.169,0,0,0-.791.24.8.8,0,0,0-.275.627.775.775,0,0,0,.111.419,1.2,1.2,0,0,0,.355.346,10.9,10.9,0,0,0,1.151.6A4.556,4.556,0,0,1,13.671,16.5,2.246,2.246,0,0,1,14.117,17.913Z" fill="#fff"></path><path d="M23.565,16a4.651,4.651,0,0,1-1.055,3.27,3.912,3.912,0,0,1-3.023,1.142,3.914,3.914,0,0,1-3.024-1.142,4.669,4.669,0,0,1-1.054-3.282,4.6,4.6,0,0,1,1.057-3.266A3.956,3.956,0,0,1,19.5,11.591a3.9,3.9,0,0,1,3.02,1.137A4.659,4.659,0,0,1,23.565,16Zm-6.252,0a3.579,3.579,0,0,0,.545,2.162,1.9,1.9,0,0,0,1.629.727q2.174,0,2.174-2.889T19.5,13.1a1.92,1.92,0,0,0-1.635.729A3.564,3.564,0,0,0,17.313,16Z" fill="#fff"></path><path d="M25.46,20.292V11.726h1.817v7.066h3.474v1.5Z" fill="#fff"></path><path d="M39.467,15.927a4.217,4.217,0,0,1-1.2,3.24,4.91,4.91,0,0,1-3.477,1.125H32.36V11.726h2.689a4.529,4.529,0,0,1,3.258,1.107A4.072,4.072,0,0,1,39.467,15.927Zm-1.886.047q0-2.76-2.438-2.76h-.967v5.578h.78Q37.581,18.792,37.581,15.974Z" fill="#fff"></path></g></svg>